<svg xmlns="http://www.w3.org/2000/svg" viewBox="0 0 900 620" role="img" aria-labelledby="title desc">
  <title id="title">Imagen editorial estrategica</title>
  <desc id="desc">Composicion oscura con globo, tablero y pieza de ajedrez.</desc>
  <defs>
    <radialGradient id="a" cx="44%" cy="38%" r="62%">
      <stop offset="0" stop-color="#3d3f41"/>
      <stop offset=".55" stop-color="#111214"/>
      <stop offset="1" stop-color="#030303"/>
    </radialGradient>
    <linearGradient id="b" x1="0" x2="1" y1="0" y2="1">
      <stop offset="0" stop-color="#ffffff" stop-opacity=".22"/>
      <stop offset="1" stop-color="#ffffff" stop-opacity="0"/>
    </linearGradient>
  </defs>
  <rect width="900" height="620" fill="url(#a)"/>
  <g opacity=".2" stroke="#f2f0eb" fill="none">
    <circle cx="330" cy="280" r="190"/>
    <path d="M140 280h380M330 90v380M205 142c88 44 170 44 250 0M205 418c88-44 170-44 250 0"/>
  </g>
  <g opacity=".15">
    <path d="M0 470h900v150H0z" fill="#000"/>
    <path d="M0 470h900M0 520h900M0 570h900M90 470v150M180 470v150M270 470v150M360 470v150M450 470v150M540 470v150M630 470v150M720 470v150M810 470v150" stroke="#f2f0eb"/>
  </g>
  <path d="M610 160h88l-13 54 26 35-30 27 24 112h-102l24-112-30-27 26-35z" fill="url(#b)" opacity=".76"/>
  <path d="M595 396h126l28 62H567z" fill="#d7d4cc" opacity=".35"/>
  <path d="M110 510h220" stroke="#b71118" stroke-width="3"/>
</svg>
